<?xml version="1.0" encoding="utf-8"?>
<!-- Generator: Adobe Illustrator 16.0.0, SVG Export Plug-In . SVG Version: 6.00 Build 0)  -->
<!DOCTYPE svg PUBLIC "-//W3C//DTD SVG 1.1//EN" "http://www.w3.org/Graphics/SVG/1.1/DTD/svg11.dtd">
<svg version="1.1" id="Layer_1" xmlns="http://www.w3.org/2000/svg" xmlns:xlink="http://www.w3.org/1999/xlink" x="0px" y="0px"
	 width="16.133px" height="16.199px" viewBox="0 0 16.133 16.199" enable-background="new 0 0 16.133 16.199" xml:space="preserve">
<g>
	<defs>
		<rect id="SVGID_1_" y="0" width="16.133" height="16.199"/>
	</defs>
	<clipPath id="SVGID_2_">
		<use xlink:href="#SVGID_1_"  overflow="visible"/>
	</clipPath>
	<path clip-path="url(#SVGID_2_)" d="M9.74,8.276c0-0.877-0.713-1.59-1.59-1.59s-1.59,0.713-1.59,1.59s0.713,1.59,1.59,1.59
		S9.74,9.153,9.74,8.276 M11.456,2.449c0-0.245,0.2-0.447,0.447-0.447h1.385c0.246,0,0.447,0.202,0.447,0.447v1.386
		c0,0.246-0.201,0.447-0.447,0.447h-1.385c-0.247,0-0.447-0.201-0.447-0.447V2.449z M8.15,4.446c0.826,0,1.59,0.264,2.216,0.709
		h5.768V4.031C16.133,1.81,14.327,0,12.102,0H4.033C1.809,0,0,1.81,0,4.031v1.123h5.934C6.56,4.709,7.324,4.446,8.15,4.446
		 M11.98,8.276c0,2.112-1.718,3.83-3.83,3.83c-2.112,0-3.83-1.718-3.83-3.83c0-0.582,0.131-1.133,0.364-1.627H0v5.52
		c0,2.224,1.809,4.031,4.032,4.031h8.07c2.223,0,4.031-1.809,4.031-4.031v-5.52h-4.518C11.849,7.144,11.98,7.694,11.98,8.276"/>
</g>
</svg>
