<?xml version="1.0" encoding="utf-8"?>
<!-- Generator: Adobe Illustrator 16.0.0, SVG Export Plug-In . SVG Version: 6.00 Build 0)  -->
<!DOCTYPE svg PUBLIC "-//W3C//DTD SVG 1.1//EN" "http://www.w3.org/Graphics/SVG/1.1/DTD/svg11.dtd" [
	<!ENTITY ns_extend "http://ns.adobe.com/Extensibility/1.0/">
	<!ENTITY ns_ai "http://ns.adobe.com/AdobeIllustrator/10.0/">
	<!ENTITY ns_graphs "http://ns.adobe.com/Graphs/1.0/">
	<!ENTITY ns_vars "http://ns.adobe.com/Variables/1.0/">
	<!ENTITY ns_imrep "http://ns.adobe.com/ImageReplacement/1.0/">
	<!ENTITY ns_sfw "http://ns.adobe.com/SaveForWeb/1.0/">
	<!ENTITY ns_custom "http://ns.adobe.com/GenericCustomNamespace/1.0/">
	<!ENTITY ns_adobe_xpath "http://ns.adobe.com/XPath/1.0/">
]>
<svg version="1.1" id="Layer_1" xmlns:x="&ns_extend;" xmlns:i="&ns_ai;" xmlns:graph="&ns_graphs;"
	 xmlns="http://www.w3.org/2000/svg" xmlns:xlink="http://www.w3.org/1999/xlink" x="0px" y="0px" width="30.91px" height="31.09px"
	 viewBox="0 0 30.91 31.09" enable-background="new 0 0 30.91 31.09" xml:space="preserve">
<metadata>
	<sfw  xmlns="&ns_sfw;">
		<slices></slices>
		<sliceSourceBounds  width="23.724" height="30.643" y="0.402" x="2.879" bottomLeftOrigin="true"></sliceSourceBounds>
	</sfw>
</metadata>
<g>
	<path fill="#FFFFFF" d="M13.752,19.999c0.153,0.195,0.285,0.396,0.449,0.568c0.878,0.918,1.98,1.389,3.22,1.541
		c0.871,0.109,1.736,0.021,2.588-0.176c1.979-0.459,3.562-1.531,4.822-3.104c1.111-1.391,1.812-2.98,2.244-4.696
		c0.293-1.16,0.438-2.341,0.475-3.536c0.021-0.679-0.004-1.356-0.118-2.027c-0.334-1.942-1.181-3.637-2.527-5.07
		c-1.983-2.11-4.471-3.178-7.325-3.445c-0.968-0.091-1.937-0.061-2.901,0.04c-1.222,0.128-2.413,0.394-3.558,0.846
		C8.333,2.042,6.223,3.896,4.884,6.595C4.346,7.678,4.012,8.825,3.885,10.03c-0.073,0.701-0.066,1.401,0.003,2.102
		c0.09,0.922,0.296,1.815,0.671,2.665c0.485,1.096,1.195,2.004,2.245,2.613c0.243,0.141,0.502,0.262,0.768,0.352
		c0.298,0.1,0.568-0.045,0.697-0.33c0.028-0.062,0.05-0.127,0.066-0.193c0.121-0.471,0.234-0.941,0.362-1.41
		c0.087-0.315,0.038-0.59-0.18-0.834c-0.029-0.033-0.056-0.069-0.083-0.102c-0.712-0.834-1.062-1.813-1.145-2.895
		c-0.063-0.833-0.002-1.66,0.192-2.471c0.611-2.574,2.081-4.479,4.465-5.65c1.05-0.516,2.172-0.772,3.338-0.842
		c1.184-0.071,2.35,0.027,3.486,0.39c1.538,0.491,2.771,1.387,3.591,2.8c0.624,1.075,0.881,2.248,0.887,3.481
		c0.008,1.042-0.084,2.078-0.285,3.102c-0.227,1.163-0.58,2.284-1.146,3.33c-0.457,0.848-1.024,1.607-1.812,2.18
		c-0.912,0.658-1.92,0.943-3.037,0.707c-1.477-0.311-2.398-1.68-2.091-3.149c0.152-0.727,0.376-1.44,0.585-2.154
		c0.301-1.023,0.649-2.033,0.859-3.082c0.125-0.625,0.196-1.253,0.062-1.886C16.208,7.939,15.804,7.301,15,6.992
		c-0.57-0.22-1.155-0.22-1.735-0.035c-0.798,0.254-1.373,0.791-1.807,1.488c-0.451,0.725-0.682,1.522-0.75,2.369
		c-0.091,1.131,0.063,2.226,0.495,3.278c0.021,0.05,0.026,0.116,0.013,0.169c-0.68,2.895-1.358,5.791-2.049,8.684
		c-0.228,0.955-0.431,1.912-0.484,2.895c-0.085,1.539,0.014,3.068,0.237,4.592c0.015,0.1,0.064,0.174,0.164,0.199
		s0.191,0.006,0.26-0.076c0.015-0.02,0.031-0.037,0.045-0.057c0.487-0.695,0.997-1.375,1.455-2.09
		c0.703-1.098,1.295-2.254,1.649-3.514c0.287-1.023,0.537-2.057,0.801-3.086C13.448,21.206,13.601,20.6,13.752,19.999z"/>
	<path d="M13.752,19.999c-0.152,0.602-0.304,1.207-0.459,1.811c-0.265,1.029-0.515,2.062-0.801,3.088
		c-0.354,1.26-0.947,2.416-1.649,3.514c-0.458,0.715-0.968,1.395-1.455,2.09c-0.014,0.018-0.03,0.035-0.045,0.055
		c-0.069,0.084-0.161,0.104-0.26,0.078c-0.099-0.027-0.148-0.102-0.164-0.201c-0.223-1.521-0.323-3.051-0.237-4.59
		c0.053-0.982,0.256-1.939,0.484-2.895c0.69-2.895,1.369-5.789,2.049-8.684c0.013-0.054,0.007-0.12-0.013-0.169
		c-0.432-1.053-0.586-2.147-0.495-3.278c0.067-0.847,0.299-1.644,0.75-2.369c0.434-0.697,1.008-1.234,1.807-1.488
		c0.581-0.185,1.165-0.185,1.735,0.035c0.805,0.31,1.209,0.948,1.381,1.761c0.137,0.633,0.064,1.261-0.061,1.886
		c-0.21,1.048-0.558,2.058-0.859,3.082c-0.209,0.714-0.433,1.427-0.585,2.154c-0.307,1.469,0.614,2.84,2.092,3.15
		c1.115,0.236,2.125-0.049,3.035-0.709c0.789-0.57,1.355-1.33,1.812-2.178c0.566-1.047,0.92-2.167,1.146-3.331
		c0.199-1.024,0.293-2.06,0.285-3.102c-0.008-1.233-0.264-2.406-0.888-3.481c-0.819-1.413-2.053-2.309-3.591-2.8
		c-1.135-0.362-2.301-0.46-3.486-0.39c-1.166,0.07-2.288,0.326-3.338,0.842C9.561,5.05,8.091,6.956,7.48,9.529
		C7.286,10.34,7.225,11.167,7.288,12c0.083,1.082,0.432,2.06,1.145,2.895c0.028,0.033,0.054,0.068,0.083,0.102
		c0.218,0.244,0.268,0.519,0.18,0.834c-0.128,0.468-0.241,0.94-0.362,1.411c-0.016,0.064-0.038,0.131-0.066,0.191
		C8.14,17.717,7.87,17.862,7.573,17.76c-0.266-0.09-0.525-0.211-0.768-0.352c-1.05-0.609-1.76-1.517-2.245-2.613
		c-0.375-0.85-0.581-1.743-0.671-2.665c-0.069-0.701-0.077-1.4-0.003-2.102c0.127-1.205,0.461-2.351,0.999-3.435
		C6.223,3.896,8.333,2.042,11.12,0.94c1.145-0.452,2.335-0.717,3.558-0.846c0.966-0.101,1.935-0.131,2.901-0.04
		c2.854,0.267,5.342,1.335,7.325,3.445c1.349,1.433,2.193,3.127,2.527,5.07c0.114,0.671,0.14,1.348,0.118,2.027
		c-0.037,1.195-0.182,2.375-0.475,3.536c-0.433,1.716-1.133,3.306-2.244,4.696c-1.26,1.572-2.845,2.645-4.822,3.104
		c-0.852,0.197-1.717,0.285-2.588,0.176c-1.24-0.152-2.342-0.623-3.22-1.541C14.037,20.397,13.906,20.194,13.752,19.999z"/>
</g>
</svg>
